<svg width="49" height="48" viewBox="0 0 49 48" fill="none" xmlns="http://www.w3.org/2000/svg">
<path d="M47.6621 22.2481C47.4516 22.0138 47.2014 21.8279 46.926 21.7011C46.6506 21.5742 46.3553 21.5089 46.057 21.5089C45.7588 21.5089 45.4635 21.5742 45.1881 21.7011C44.9126 21.8279 44.6625 22.0138 44.452 22.2481L36.2397 31.356L21.322 14.8114L29.5399 5.69931C29.9656 5.22719 30.2048 4.58687 30.2048 3.9192C30.2048 3.25152 29.9656 2.6112 29.5399 2.13908C29.1143 1.66697 28.5369 1.40173 27.9349 1.40173C27.3329 1.40173 26.7555 1.66697 26.3298 2.13908L17.5775 11.8501C17.0763 12.4075 16.7268 13.1101 16.5692 13.8776C16.4115 14.6451 16.4521 15.4463 16.6862 16.1894L13.0455 20.2271C12.3375 21.0126 11.9398 22.0778 11.9398 23.1884C11.9398 24.299 12.3375 25.3642 13.0455 26.1497L13.3911 26.5392L2.91283 38.1644C2.63971 38.4674 2.44099 38.8429 2.33555 39.2551C2.2301 39.6673 2.22143 40.1025 2.31036 40.5195C2.39929 40.9365 2.58286 41.3213 2.84364 41.6374C3.10442 41.9535 3.43375 42.1905 3.80034 42.3257L17.3962 47.3519C17.6268 47.4382 17.8685 47.4821 18.1119 47.4817C18.4097 47.4817 18.7045 47.4166 18.9796 47.2901C19.2547 47.1636 19.5046 46.9782 19.715 46.7446L25.6651 40.1519L26.0164 40.5414C26.7246 41.3266 27.685 41.7677 28.6864 41.7677C29.6879 41.7677 30.6483 41.3266 31.3565 40.5414L34.9953 36.5058C35.3954 36.6604 35.8159 36.7403 36.2397 36.7424C36.7358 36.7439 37.2273 36.6362 37.6856 36.4255C38.1439 36.2149 38.56 35.9054 38.9098 35.5152L47.6621 25.8104C47.8736 25.5769 48.0415 25.2993 48.156 24.9937C48.2706 24.688 48.3295 24.3603 48.3295 24.0293C48.3295 23.6982 48.2706 23.3705 48.156 23.0648C48.0415 22.7592 47.8736 22.4816 47.6621 22.2481ZM17.5001 42.0932L8.70995 38.845L16.6012 30.0994L22.455 36.5916L17.5001 42.0932ZM28.6864 36.3822L18.2044 24.7633L16.79 23.1884L19.6225 20.047L31.5189 33.2408L28.6864 36.3822Z" fill="currentColor"/>
</svg>
