<svg width="324" height="129" viewBox="0 0 324 129" fill="none" xmlns="http://www.w3.org/2000/svg">
<path d="M25.546 111.954C17.9847 111.954 12.19 109.551 8.162 104.746C4.20467 99.9407 2.226 93.7927 2.226 86.302C2.226 78.8113 4.24 72.6633 8.268 67.858C12.296 62.982 18.126 60.544 25.758 60.544C30.634 60.544 34.5913 61.498 37.63 63.406C40.7393 65.2433 42.294 67.6813 42.294 70.72C42.294 73.688 41.0573 76.02 38.584 77.716C36.1107 79.412 33.0013 80.26 29.256 80.26C31.376 77.9987 32.436 74.9247 32.436 71.038C32.436 68.7767 31.7293 66.904 30.316 65.42C28.9733 63.8653 27.2067 63.088 25.016 63.088C20.988 63.088 18.02 65.3847 16.112 69.978C14.2747 74.5713 13.356 80.0127 13.356 86.302C13.356 90.33 13.9213 94.0047 15.052 97.326C16.2533 100.647 17.9493 103.297 20.14 105.276C22.4013 107.184 24.9807 108.138 27.878 108.138C31.1993 108.138 33.9553 107.467 36.146 106.124C38.4073 104.711 40.4567 102.767 42.294 100.294L43.566 101.248C41.658 104.428 39.1847 107.007 36.146 108.986C33.178 110.965 29.6447 111.954 25.546 111.954ZM82.5781 104.958C82.5781 107.078 83.2495 108.138 84.5921 108.138C85.9348 108.138 87.2421 107.608 88.5141 106.548L89.3621 107.608C86.7475 110.505 83.6735 111.954 80.1401 111.954C77.5961 111.954 75.7588 111.318 74.6281 110.046C73.5681 108.703 73.0381 106.548 73.0381 103.58V87.362C73.0381 83.2633 71.7308 81.214 69.1161 81.214C66.5721 81.214 64.5228 82.9453 62.9681 86.408C61.4135 89.8707 60.6361 94.3933 60.6361 99.976C60.6361 102.167 60.7775 103.933 61.0601 105.276C61.4135 106.548 61.9788 107.749 62.7561 108.88L63.6041 109.94L62.7561 111H47.3861L46.7501 109.198L48.2341 108.88C49.3648 108.597 50.1068 108.173 50.4601 107.608C50.8135 106.972 50.9901 105.771 50.9901 104.004V66.162C50.9901 65.5967 50.8488 65.1373 50.5661 64.784C50.3541 64.4307 50.0361 64.254 49.6121 64.254H46.3261L45.9021 63.194C47.2448 61.922 48.9761 60.9327 51.0961 60.226C53.2868 59.4487 55.4421 59.06 57.5621 59.06C58.4808 59.06 59.2228 59.272 59.7881 59.696C60.3535 60.0493 60.6361 60.5793 60.6361 61.286V87.468C61.6255 84.1467 63.3568 81.3907 65.8301 79.2C68.3741 76.9387 71.0595 75.808 73.8861 75.808C76.9248 75.808 79.1155 76.7973 80.4581 78.776C81.8715 80.7547 82.5781 83.8993 82.5781 88.21V104.958ZM113.379 107.82C114.933 107.82 116.099 107.537 116.877 106.972C117.654 106.336 118.219 105.311 118.573 103.898L119.421 99.976L121.541 100.718V111.848L120.693 112.696C119.703 112.06 118.608 111.601 117.407 111.318C116.276 111.106 114.651 111 112.531 111H92.4966L91.7546 108.88L110.517 79.73H100.765C99.2806 79.73 98.1146 80.048 97.2666 80.684C96.4186 81.32 95.8533 82.3093 95.5706 83.652L94.8286 87.574L92.6026 86.832V75.702L93.4506 74.854C94.4399 75.49 95.4999 75.9493 96.6306 76.232C97.8319 76.444 99.5279 76.55 101.719 76.55H121.223C122.141 77.398 122.601 78.3873 122.601 79.518L120.693 80.578L103.203 107.82H113.379ZM150.401 111.954C143.051 111.954 137.221 109.657 132.911 105.064C128.6 100.471 126.445 94.2167 126.445 86.302C126.445 78.3873 128.6 72.1333 132.911 67.54C137.221 62.876 143.051 60.544 150.401 60.544C157.75 60.544 163.58 62.876 167.891 67.54C172.272 72.1333 174.463 78.3873 174.463 86.302C174.463 94.146 172.272 100.4 167.891 105.064C163.58 109.657 157.75 111.954 150.401 111.954ZM150.083 109.516C152.697 109.516 154.994 108.562 156.973 106.654C159.022 104.675 160.612 101.955 161.743 98.492C162.873 95.0293 163.439 91.0367 163.439 86.514C163.439 81.9913 162.873 77.928 161.743 74.324C160.683 70.72 159.163 67.9287 157.185 65.95C155.277 63.9007 153.086 62.876 150.613 62.876C147.998 62.876 145.666 63.9007 143.617 65.95C141.567 67.9287 139.977 70.7553 138.847 74.43C137.716 78.034 137.151 82.168 137.151 86.832C137.151 93.6867 138.317 99.1987 140.649 103.368C142.981 107.467 146.125 109.516 150.083 109.516ZM215.924 104.958C215.924 107.078 216.595 108.138 217.938 108.138C219.28 108.138 220.588 107.608 221.86 106.548L222.708 107.608C220.093 110.505 217.019 111.954 213.486 111.954C210.942 111.954 209.104 111.318 207.974 110.046C206.914 108.703 206.384 106.548 206.384 103.58V87.362C206.384 83.2633 205.076 81.214 202.462 81.214C199.918 81.214 197.833 82.9453 196.208 86.408C194.653 89.8707 193.876 94.3933 193.876 99.976C193.876 102.096 194.052 103.827 194.406 105.17C194.759 106.442 195.324 107.679 196.102 108.88L196.95 109.94L196.102 111H180.732L180.096 109.198L181.58 108.88C182.71 108.597 183.452 108.173 183.806 107.608C184.159 106.972 184.336 105.771 184.336 104.004V83.334C184.336 81.9913 183.876 81.32 182.958 81.32H179.566L179.248 80.154C180.661 78.9527 182.428 77.9633 184.548 77.186C186.668 76.4087 188.788 76.02 190.908 76.02C191.826 76.02 192.533 76.232 193.028 76.656C193.593 77.08 193.876 77.6453 193.876 78.352V87.468C194.865 84.1467 196.632 81.3907 199.176 79.2C201.72 76.9387 204.405 75.808 207.232 75.808C210.27 75.808 212.461 76.7973 213.804 78.776C215.217 80.7547 215.924 83.8993 215.924 88.21V104.958ZM280.097 97.644C280.238 100.471 280.662 102.838 281.369 104.746C282.075 106.654 283.206 108.385 284.761 109.94L283.913 111H265.469L264.727 109.092C267.059 108.456 268.543 107.82 269.179 107.184C269.885 106.548 270.239 105.382 270.239 103.686C270.239 102.767 269.673 94.1813 268.543 77.928L267.907 68.706L253.597 109.41H250.629L236.425 69.024L234.941 93.192C234.658 96.584 234.517 98.9513 234.517 100.294C234.517 102.131 234.729 103.757 235.153 105.17C235.647 106.513 236.531 108.103 237.803 109.94L236.849 111H225.083L224.447 109.092C226.284 108.527 227.591 108.032 228.369 107.608C229.217 107.184 229.782 106.583 230.065 105.806C230.418 105.029 230.665 103.827 230.807 102.202L232.079 81.85C232.432 77.1153 232.609 74.006 232.609 72.522C232.609 70.1193 232.326 68.3527 231.761 67.222C231.266 66.0913 230.1 64.6427 228.263 62.876L229.005 61.498H244.481L255.399 94.464L266.953 61.498H280.627L281.687 62.664C280.344 64.6427 279.425 66.268 278.931 67.54C278.507 68.812 278.295 70.4727 278.295 72.522C278.295 73.8647 278.436 75.9493 278.719 78.776L280.097 97.644ZM309.629 108.456C311.679 108.456 313.481 108.103 315.035 107.396C316.59 106.619 318.109 105.347 319.593 103.58L320.865 104.534C319.24 106.866 317.155 108.703 314.611 110.046C312.138 111.318 309.417 111.954 306.449 111.954C303.199 111.954 300.266 111.177 297.651 109.622C295.107 108.067 293.093 105.947 291.609 103.262C290.125 100.506 289.383 97.3967 289.383 93.934C289.383 88.422 291.044 84.0407 294.365 80.79C297.757 77.4687 302.245 75.808 307.827 75.808C311.785 75.808 315 76.762 317.473 78.67C320.017 80.5073 321.289 82.91 321.289 85.878C321.289 89.27 319.841 91.9907 316.943 94.04C314.117 96.0187 310.23 97.008 305.283 97.008C303.305 97.008 301.503 96.8667 299.877 96.584C300.231 100.259 301.291 103.156 303.057 105.276C304.824 107.396 307.015 108.456 309.629 108.456ZM306.661 78.352C304.471 78.352 302.739 79.6947 301.467 82.38C300.266 84.9947 299.665 88.6693 299.665 93.404V95.1C300.443 95.1 301.397 95.0293 302.527 94.888C305.495 94.5347 307.757 93.5807 309.311 92.026C310.937 90.4007 311.749 88.2807 311.749 85.666C311.749 83.546 311.255 81.8147 310.265 80.472C309.347 79.0587 308.145 78.352 306.661 78.352Z" fill="white"/>
<path d="M125.019 38.6454L123 39.7765L110.272 17.0534L112.291 15.9223L125.019 38.6454ZM105.759 29.3194C106.637 30.8871 107.203 32.5569 107.457 34.3288C107.71 36.1007 107.653 37.8173 107.285 39.4785C106.918 41.1397 106.291 42.5988 105.406 43.8558L103.408 42.9266C104.246 41.7854 104.845 40.4763 105.204 38.9991C105.563 37.522 105.654 36.0159 105.477 34.4808C105.3 32.9458 104.848 31.5307 104.123 30.2357L102.978 28.1908L104.614 27.2745L105.759 29.3194ZM106.091 29.1332C106.788 30.3772 107.739 31.4452 108.944 32.3374C110.149 33.2295 111.473 33.8756 112.917 34.2756C114.361 34.6756 115.784 34.8077 117.186 34.6719L116.934 36.861C115.402 37.0029 113.839 36.8206 112.246 36.3139C110.652 35.8073 109.172 35.0133 107.805 33.932C106.439 32.8507 105.33 31.5518 104.481 30.0352L103.336 27.9904L104.946 27.0884L106.091 29.1332ZM110.366 24.3548L97.7645 31.4131L96.8482 29.7773L109.449 22.719L110.366 24.3548ZM104.674 26.6028L102.68 27.7195L100.189 23.272L102.183 22.1553L104.674 26.6028Z" fill="white"/>
<path d="M157.287 27.7233L133.749 31.5585L133.439 29.6501L156.976 25.8149L157.287 27.7233ZM143.532 12.8967C143.802 14.5545 143.553 16.1832 142.784 17.7826C142.016 19.3821 140.911 20.7989 139.47 22.0331C138.028 23.2673 136.478 24.1977 134.819 24.8242L133.568 23.158C135.008 22.6463 136.39 21.8622 137.711 20.8058C139.033 19.7494 140.064 18.5426 140.802 17.1854C141.541 15.8283 141.805 14.5039 141.595 13.2124L141.241 11.0437L143.179 10.728L143.532 12.8967ZM143.937 12.8307C144.15 14.1416 144.826 15.3128 145.964 16.3444C147.101 17.3761 148.474 18.1765 150.08 18.7459C151.687 19.3152 153.262 19.6027 154.807 19.6083L154.174 21.5519C152.382 21.4876 150.604 21.1094 148.839 20.4175C147.074 19.7256 145.57 18.7536 144.327 17.5017C143.084 16.2497 142.327 14.7948 142.057 13.137L141.704 10.9683L143.583 10.6621L143.937 12.8307ZM152.36 10.2412L132.785 13.4309L132.478 11.5513L152.054 8.36165L152.36 10.2412Z" fill="white"/>
<path d="M190.71 25.5903L167.396 21.1658L167.751 19.2949L191.065 23.7194L190.71 25.5903ZM180.345 22.6988L178.1 22.2728L179.001 17.5235L181.246 17.9496L180.345 22.6988ZM186.311 34.6259L168.61 31.2666L168.97 29.3669L186.672 32.7262L186.311 34.6259ZM171.124 30.4317L168.85 30.0001L170.025 23.8118L172.298 24.2433L171.124 30.4317ZM181.849 8.64109C183.672 8.98703 185.227 9.49076 186.513 10.1523C187.799 10.8138 188.738 11.5984 189.331 12.5062C189.924 13.4139 190.123 14.3859 189.926 15.4221C189.722 16.4967 189.178 17.3476 188.293 17.975C187.409 18.6023 186.251 18.9939 184.82 19.1497C183.389 19.3056 181.752 19.2087 179.91 18.8591C178.068 18.5095 176.505 17.9992 175.221 17.3281C173.937 16.657 172.998 15.8675 172.405 14.9598C171.812 14.052 171.617 13.0609 171.821 11.9863C172.018 10.9501 172.559 10.1183 173.443 9.49097C174.327 8.86362 175.489 8.47774 176.928 8.33332C178.367 8.18891 180.007 8.2915 181.849 8.64109ZM181.5 10.4832C180.137 10.2247 178.923 10.1284 177.857 10.1945C176.791 10.2605 175.938 10.4863 175.298 10.8718C174.658 11.2573 174.277 11.7763 174.153 12.4287C174.025 13.1003 174.188 13.7375 174.64 14.3402C175.092 14.9429 175.802 15.4702 176.77 15.9223C177.738 16.3744 178.903 16.7297 180.265 16.9882C181.628 17.2468 182.842 17.343 183.908 17.277C184.974 17.2109 185.828 16.9803 186.47 16.5852C187.111 16.1901 187.496 15.6567 187.623 14.9851C187.747 14.3327 187.582 13.7099 187.128 13.1168C186.674 12.5237 185.963 12.0012 184.995 11.5491C184.027 11.0971 182.862 10.7418 181.5 10.4832Z" fill="white"/>
<path d="M211.056 39.7174L200.707 33.5617L209.364 19.0082L219.712 25.1639L211.056 39.7174ZM203.604 33.1035L210.075 36.9527L216.83 25.5969L210.359 21.7477L203.604 33.1035ZM214.484 49.4266L212.495 48.2433L225.84 25.8088L227.829 26.992L214.484 49.4266Z" fill="white"/>
</svg>
