<svg width="48" height="48" viewBox="0 0 48 48" fill="none" xmlns="http://www.w3.org/2000/svg">
<path d="M35.2996 12.7C33.6232 11.0086 31.5883 9.71525 29.3452 8.9156C27.102 8.11596 24.7079 7.8304 22.3396 8.08002C14.9996 8.82002 8.95955 14.78 8.13955 22.12C7.03955 31.82 14.5396 40 23.9996 40C27.0198 40 29.978 39.1431 32.5305 37.5287C35.0831 35.9143 37.1252 33.6088 38.4196 30.88C39.0595 29.54 38.0996 28 36.6196 28C35.8796 28 35.1796 28.4 34.8596 29.06C33.6984 31.5581 31.7123 33.58 29.2354 34.7856C26.7585 35.9913 23.942 36.3071 21.2596 35.68C16.8196 34.7 13.2396 31.08 12.2996 26.64C11.9044 24.8845 11.909 23.0627 12.3129 21.3092C12.7169 19.5557 13.5099 17.9155 14.6333 16.5099C15.7566 15.1042 17.1816 13.9691 18.8029 13.1885C20.4241 12.4078 22.2002 12.0017 23.9996 12C27.3196 12 30.2796 13.38 32.4396 15.56L29.4196 18.58C28.1596 19.84 29.0396 22 30.8196 22H37.9996C39.0996 22 39.9996 21.1 39.9996 20V12.82C39.9996 11.04 37.8396 10.14 36.5796 11.4L35.2996 12.7Z" fill="currentColor"/>
</svg>
