<svg width="48" height="48" viewBox="0 0 48 48" fill="none" xmlns="http://www.w3.org/2000/svg">
<path d="M8 40C6.9 40 5.95867 39.6087 5.176 38.826C4.39333 38.0433 4.00133 37.1013 4 36V12C4 10.9 4.392 9.95867 5.176 9.176C5.96 8.39333 6.90133 8.00133 8 8H40C41.1 8 42.042 8.392 42.826 9.176C43.61 9.96 44.0013 10.9013 44 12V36C44 37.1 43.6087 38.042 42.826 38.826C42.0433 39.61 41.1013 40.0013 40 40H8ZM8 36H40V12H8V36ZM20 28H14C13.4333 28 12.9587 28.192 12.576 28.576C12.1933 28.96 12.0013 29.4347 12 30C11.9987 30.5653 12.1907 31.0407 12.576 31.426C12.9613 31.8113 13.436 32.0027 14 32H16C16 32.5667 16.192 33.042 16.576 33.426C16.96 33.81 17.4347 34.0013 18 34C18.5653 33.9987 19.0407 33.8067 19.426 33.424C19.8113 33.0413 20.0027 32.5667 20 32H22C22.5667 32 23.042 31.808 23.426 31.424C23.81 31.04 24.0013 30.5653 24 30V24C24 23.4333 23.808 22.9587 23.424 22.576C23.04 22.1933 22.5653 22.0013 22 22H16V20H22C22.5667 20 23.042 19.808 23.426 19.424C23.81 19.04 24.0013 18.5653 24 18C23.9987 17.4347 23.8067 16.96 23.424 16.576C23.0413 16.192 22.5667 16 22 16H20C20 15.4333 19.808 14.9587 19.424 14.576C19.04 14.1933 18.5653 14.0013 18 14C17.4347 13.9987 16.96 14.1907 16.576 14.576C16.192 14.9613 16 15.436 16 16H14C13.4333 16 12.9587 16.192 12.576 16.576C12.1933 16.96 12.0013 17.4347 12 18V24C12 24.5667 12.192 25.042 12.576 25.426C12.96 25.81 13.4347 26.0013 14 26H20V28ZM32.35 32.15L35.15 29.35C35.3167 29.1833 35.3587 29 35.276 28.8C35.1933 28.6 35.0347 28.5 34.8 28.5H29.2C28.9667 28.5 28.8087 28.6 28.726 28.8C28.6433 29 28.6847 29.1833 28.85 29.35L31.65 32.15C31.75 32.25 31.8667 32.3 32 32.3C32.1333 32.3 32.25 32.25 32.35 32.15ZM29.2 20H34.8C35.0333 20 35.192 19.9 35.276 19.7C35.36 19.5 35.318 19.3167 35.15 19.15L32.35 16.35C32.25 16.25 32.1333 16.2 32 16.2C31.8667 16.2 31.75 16.25 31.65 16.35L28.85 19.15C28.6833 19.3167 28.642 19.5 28.726 19.7C28.81 19.9 28.968 20 29.2 20Z" fill="currentColor"/>
</svg>
