<svg width="48" height="48" viewBox="0 0 48 48" fill="none" xmlns="http://www.w3.org/2000/svg">
<path d="M22.152 7.49099C22.5498 6.80278 23.2045 6.3006 23.9723 6.09473C24.7401 5.88886 25.5582 5.99613 26.247 6.39299L33 10.293C33.689 10.6908 34.1918 11.3461 34.3977 12.1146C34.6036 12.8831 34.4958 13.702 34.098 14.391L30.285 21H33C33.3978 21 33.7794 21.158 34.0607 21.4393C34.342 21.7206 34.5 22.1022 34.5 22.5C34.5 22.8978 34.342 23.2793 34.0607 23.5606C33.7794 23.842 33.3978 24 33 24H15C14.6022 24 14.2206 23.842 13.9393 23.5606C13.658 23.2793 13.5 22.8978 13.5 22.5C13.5 22.1022 13.658 21.7206 13.9393 21.4393C14.2206 21.158 14.6022 21 15 21H17.025C16.532 20.5367 16.2101 19.9203 16.1116 19.251C16.013 18.5817 16.1435 17.8988 16.482 17.313L22.152 7.49099ZM22.863 21H26.82L31.5 12.891L24.75 8.99099L19.08 18.813L22.863 21ZM14.352 15H13.542C12.8261 15.0002 12.1205 15.1713 11.4839 15.499C10.8474 15.8266 10.2982 16.3015 9.882 16.884L3.837 25.344C3.2922 26.1075 2.99956 27.0221 3 27.96V37.5C3 38.6935 3.47411 39.8381 4.31802 40.682C5.16193 41.5259 6.30653 42 7.5 42H40.5C41.6935 42 42.8381 41.5259 43.682 40.682C44.5259 39.8381 45 38.6935 45 37.5V27.96C44.9989 27.0228 44.7053 26.1093 44.16 25.347L38.118 16.887C37.7705 16.3985 37.3288 15.9844 36.819 15.669L36.699 15.891L35.319 18.276C35.4579 18.3719 35.5796 18.4906 35.679 18.627L41.652 27H6.348L12.327 18.63C12.5224 18.3554 12.8046 18.1546 13.128 18.06C13.224 17.289 13.473 16.53 13.884 15.813L14.352 15Z" fill="currentColor"/>
</svg>
