<svg width="66" height="47" viewBox="0 0 66 47" fill="none" xmlns="http://www.w3.org/2000/svg">
<path d="M64.6199 7.25286C63.8595 4.3965 61.6263 2.15182 58.7848 1.38722C53.64 4.39393e-07 32.9999 0 32.9999 0C32.9999 0 12.36 4.39393e-07 7.215 1.38722C4.37356 2.15182 2.1406 4.3965 1.37998 7.25286C4.37101e-07 12.4249 0 23.2222 0 23.2222C0 23.2222 4.37101e-07 34.0196 1.37998 39.1917C2.1406 42.048 4.37356 44.2927 7.215 45.0571C12.36 46.4444 32.9999 46.4444 32.9999 46.4444C32.9999 46.4444 53.64 46.4444 58.7848 45.0571C61.6263 44.2927 63.8595 42.048 64.6199 39.1917C66 34.0196 66 23.2222 66 23.2222C66 23.2222 65.9945 12.4249 64.6199 7.25286Z" fill="#FF0000"/>
<path d="M26.3937 33.0009L43.5403 23.1021L26.3937 13.2031V33.0009Z" fill="white"/>
</svg>
