<svg width="24" height="24" viewBox="0 0 24 24" fill="none" xmlns="http://www.w3.org/2000/svg">
<path fill-rule="evenodd" clip-rule="evenodd" d="M10.95 22.648V22.638C11.42 22.638 11.88 22.468 12.25 22.148L12.255 22.145L12.27 22.158C12.64 22.478 13.09 22.648 13.57 22.648V22.658C13.68 22.658 13.78 22.658 13.88 22.638C16.56 22.238 18.97 20.848 20.67 18.718C21.04 18.258 21.18 17.678 21.07 17.098L21.064 17.067C21.622 16.876 22.05 16.457 22.26 15.918C22.75 14.678 23 13.348 23 11.988C23 10.628 22.75 9.298 22.26 8.068C22.04 7.518 21.62 7.108 21.06 6.908L21.051 6.905C21.1065 6.62262 21.0994 6.3315 21.0303 6.05214C20.9612 5.77278 20.8317 5.51195 20.651 5.288C18.9614 3.16868 16.5317 1.76804 13.851 1.368C13.5676 1.32189 13.2775 1.33895 13.0014 1.41795C12.7253 1.49695 12.4701 1.63594 12.254 1.825C12.0375 1.64126 11.784 1.50624 11.5106 1.42912C11.2373 1.35199 10.9506 1.33456 10.67 1.378C8 1.778 5.58 3.168 3.88 5.298C3.69715 5.51799 3.56522 5.77569 3.49364 6.05265C3.42207 6.32961 3.41263 6.61897 3.466 6.9L3.44 6.91C2.88 7.1 2.45 7.52 2.24 8.06C1.75 9.3 1.5 10.62 1.5 11.99C1.5 13.36 1.75 14.68 2.24 15.92C2.34539 16.1899 2.50818 16.4338 2.71711 16.6346C2.92603 16.8354 3.1761 16.9884 3.45 17.083C3.39452 17.3668 3.40157 17.6593 3.47065 17.9401C3.53973 18.2209 3.66919 18.4833 3.85 18.709C5.55 20.829 7.96 22.229 10.64 22.629C10.75 22.649 10.85 22.648 10.95 22.648ZM5.203 15.205L4.521 15.599C4.48223 15.6211 4.44421 15.6444 4.407 15.669C4.26008 15.7234 4.09916 15.7269 3.95 15.679C3.88206 15.6551 3.82008 15.6168 3.7683 15.5668C3.71653 15.5167 3.67617 15.4561 3.65 15.389C3.22 14.319 3.01 13.189 3.01 12.009C3.01 10.829 3.23 9.699 3.65 8.629C3.71 8.489 3.81 8.389 3.95 8.339C4.02 8.309 4.09 8.299 4.16 8.299V8.309C4.29 8.309 4.42 8.339 4.53 8.409L5.21 8.799C4.74909 9.8037 4.50991 10.8959 4.5087 12.0012C4.50749 13.1066 4.74429 14.1993 5.203 15.205ZM11.501 10.686L7.26 8.237C7.77006 7.56926 8.40737 7.00921 9.13513 6.58921C9.86289 6.1692 10.6667 5.89757 11.5 5.79L11.501 10.686ZM10.758 11.998L8.09 13.538L6.51 14.449C6.18 13.689 6.01 12.849 6.01 11.999C6.01 11.149 6.18 10.319 6.51 9.549L10.758 11.998ZM5.967 16.498L5.961 16.509L5.281 16.899C5.19432 16.9464 5.119 17.0121 5.06028 17.0915C5.00156 17.171 4.96086 17.2622 4.941 17.359C4.921 17.459 4.921 17.619 5.041 17.769C6.48972 19.5924 8.57734 20.7971 10.881 21.139C11.071 21.169 11.211 21.089 11.291 21.019C11.3614 20.9553 11.4181 20.8779 11.4576 20.7916C11.4971 20.7053 11.5187 20.6119 11.521 20.517L11.52 20.499V19.699C10.4208 19.5895 9.35757 19.247 8.40123 18.6941C7.44489 18.1413 6.61741 17.3909 5.974 16.493L5.967 16.498ZM7.262 15.75C7.76803 16.4242 8.40541 16.9889 9.13569 17.41C9.86597 17.8311 10.674 18.0998 11.511 18.2V13.3L7.262 15.75ZM13.02 4.29V3.51C13.02 3.45933 13.0183 3.41 13.015 3.362C13.044 3.21445 13.1197 3.08015 13.231 2.979C13.351 2.879 13.481 2.839 13.631 2.859C15.9391 3.20296 18.0302 4.41118 19.481 6.239C19.601 6.389 19.601 6.549 19.581 6.649C19.554 6.78802 19.4824 6.91443 19.377 7.009C19.327 7.03433 19.278 7.061 19.23 7.089L18.549 7.482C17.906 6.58871 17.0807 5.8422 16.1275 5.29191C15.1743 4.74162 14.1151 4.40011 13.02 4.29ZM17.248 8.233L13.02 10.675V5.799C13.852 5.89983 14.6552 6.16722 15.3816 6.58524C16.108 7.00325 16.7428 7.56431 17.248 8.233ZM5.27 7.088L5.954 7.483C6.59889 6.58665 7.42676 5.83744 8.38282 5.28493C9.33889 4.73242 10.4014 4.38921 11.5 4.278V3.488C11.5 3.278 11.41 3.078 11.27 2.958C11.1822 2.87926 11.0679 2.83643 10.95 2.838L10.96 2.848H10.88C8.58 3.198 6.5 4.388 5.03 6.228C4.91 6.378 4.91 6.538 4.93 6.638C4.95942 6.80038 5.05042 6.94512 5.184 7.042L5.27 7.088ZM19.31 15.208L19.46 15.294L19.99 15.598C20.17 15.698 20.39 15.728 20.57 15.658C20.6386 15.6354 20.7012 15.5975 20.7532 15.5473C20.8051 15.4971 20.845 15.4358 20.87 15.368C21.29 14.298 21.51 13.168 21.51 11.988C21.5172 10.8338 21.2998 9.68921 20.87 8.618C20.8438 8.55091 20.8035 8.49026 20.7517 8.44021C20.6999 8.39016 20.6379 8.35188 20.57 8.328C20.474 8.29721 20.3725 8.28752 20.2723 8.2996C20.1722 8.31168 20.0759 8.34525 19.99 8.398L19.31 8.788C19.7719 9.7951 20.011 10.89 20.011 11.998C20.011 13.106 19.7719 14.2009 19.31 15.208ZM19.25 16.898L18.578 16.511C17.9311 17.4082 17.1012 18.158 16.1431 18.7108C15.185 19.2637 14.1205 19.6069 13.02 19.718L13.01 19.708V20.498C13.01 20.708 13.1 20.898 13.24 21.028C13.32 21.098 13.46 21.178 13.65 21.148C15.95 20.798 18.03 19.608 19.5 17.768C19.59 17.648 19.63 17.518 19.6 17.368C19.5769 17.27 19.534 17.1778 19.474 17.097C19.4139 17.0162 19.3371 16.9485 19.25 16.898ZM13.01 13.308V18.208C13.8466 18.1057 14.654 17.8361 15.3841 17.4151C16.1143 16.9942 16.7522 16.4307 17.26 15.758L13.01 13.308ZM13.76 11.998L18.01 14.448C18.34 13.678 18.51 12.848 18.51 11.998C18.51 11.148 18.34 10.318 18.01 9.548L13.76 11.998Z" fill="currentColor"/>
</svg>
